<?xml version="1.0" encoding="utf-8"?>
<!-- Generator: Adobe Illustrator 22.1.0, SVG Export Plug-In . SVG Version: 6.00 Build 0)  -->
<svg version="1.1" baseProfile="tiny" id="Layer_1" xmlns="http://www.w3.org/2000/svg" xmlns:xlink="http://www.w3.org/1999/xlink"
	 x="0px" y="0px" viewBox="0 0 37 44" xml:space="preserve">
<g>
	<path fill="#075C8F" d="M35,40h-2v-3.2c0-1.7-0.6-3.4-1.8-4.7l-7.7-8.5c-0.9-0.9-0.9-2.4,0-3.3l7.7-8.5c1.2-1.3,1.8-3,1.8-4.7L33,4
		h2c1.1,0,2-0.9,2-2s-0.9-2-2-2H2C0.9,0,0,0.9,0,2s0.9,2,2,2h2v3.2c0,1.8,0.7,3.4,1.8,4.7l7.8,8.5c0.9,0.9,0.9,2.4,0,3.3l-7.8,8.5
		c-1.2,1.3-1.8,3-1.8,4.7V40H2c-1.1,0-2,0.9-2,2s0.9,2,2,2h33c1.1,0,2-0.9,2-2S36.1,40,35,40z M7,36.8c0-1,0.4-2,1-2.7l7.8-8.5
		c1.9-2.1,1.9-5.3,0-7.4L8,9.9C7.4,9.1,7,8.2,7,7.2V4h23l0,3.2c0,1-0.4,2-1,2.7l-7.7,8.5c-1.9,2.1-1.9,5.3,0,7.3l7.7,8.5
		c0.7,0.7,1,1.7,1,2.7V40h-7.6l-3.9-4.4L14.6,40H7V36.8z"/>
	<polygon fill="#075C8F" points="25,9.1 12,9.1 18.5,16.5 	"/>
	<path fill="#075C8F" d="M18.4,33.9c0.8,0,1.5-0.7,1.5-1.5v-3c0-0.8-0.7-1.5-1.5-1.5s-1.5,0.7-1.5,1.5v3
		C16.9,33.3,17.6,33.9,18.4,33.9z"/>
</g>
</svg>
